<svg width="76" height="76" xmlns="http://www.w3.org/2000/svg"><path d="M11 0l5 20H6l5-20zm42 31c1.6568542 0 3-1.3431458 3-3s-1.3431458-3-3-3-3 1.3431458-3 3 1.3431458 3 3 3zM0 72h40v4H0v-4zm0-8h31v4H0v-4zm20-16h20v4H20v-4zM0 56h40v4H0v-4zm63-25c1.6568542 0 3-1.3431458 3-3s-1.3431458-3-3-3-3 1.3431458-3 3 1.3431458 3 3 3zm10 0c1.6568542 0 3-1.3431458 3-3s-1.3431458-3-3-3-3 1.3431458-3 3 1.3431458 3 3 3zM53 41c1.6568542 0 3-1.3431458 3-3s-1.3431458-3-3-3-3 1.3431458-3 3 1.3431458 3 3 3zm10 0c1.6568542 0 3-1.3431458 3-3s-1.3431458-3-3-3-3 1.3431458-3 3 1.3431458 3 3 3zm10 0c1.6568542 0 3-1.3431458 3-3s-1.3431458-3-3-3-3 1.3431458-3 3 1.3431458 3 3 3zm-30 0c1.6568542 0 3-1.3431458 3-3s-1.3431458-3-3-3-3 1.3431458-3 3 1.3431458 3 3 3zm-28-8c0-2.7614237-2.2385763-5-5-5-2.76142375 0-5 2.2385763-5 5h10zm10 0c0 2.7614237-2.2385763 5-5 5s-5-2.2385763-5-5h10zM56 5c0-2.76142375-2.2385763-5-5-5s-5 2.23857625-5 5h10zm10 0c0 2.76142375-2.2385763 5-5 5s-5-2.23857625-5-5h10zm-3 46c1.6568542 0 3-1.3431458 3-3s-1.3431458-3-3-3-3 1.3431458-3 3 1.3431458 3 3 3zm10 0c1.6568542 0 3-1.3431458 3-3s-1.3431458-3-3-3-3 1.3431458-3 3 1.3431458 3 3 3zM21 0l5 20H16l5-20zm43 64v-4h-4v4h-4v4h4v4h4v-4h4v-4h-4zM36 13h4v4h-4v-4zm4 4h4v4h-4v-4zm-4 4h4v4h-4v-4zm8-8h4v4h-4v-4z" fill="#FFF" fill-rule="evenodd" fill-opacity=".1"/></svg>