<?xml version="1.0" encoding="UTF-8"?>
<svg width="512px" height="512px" viewBox="0 0 512 512" version="1.1" xmlns="http://www.w3.org/2000/svg" xmlns:xlink="http://www.w3.org/1999/xlink">
    <title>Grid</title>
    <g id="Page-1" stroke="none" stroke-width="1" fill="none" fill-rule="evenodd">
        <g id="Grid" fill="#000000">
            <polyline id="Fill-1" points="0 0.128874238 511.872365 512 512 511.872365 0.128254961 0"></polyline>
            <polyline id="Fill-2" points="511.871745 0 0 511.870506 0.127635372 512 512 0.128874238"></polyline>
            <polygon id="Fill-3" points="0 30.8500004 512 30.8500004 512 31.026884 0 31.026884"></polygon>
            <polygon id="Fill-4" points="0 255.727455 512 255.727455 512 255.905542 0 255.905542"></polygon>
            <polygon id="Fill-5" points="0 350.799988 512 350.799988 512 350.975668 0 350.975668"></polygon>
            <polygon id="Fill-6" points="0 160.649994 512 160.649994 512 160.825674 0 160.825674"></polygon>
            <polygon id="Fill-7" points="30.8156616 0 30.9919436 0 30.9919436 512 30.8156616 512"></polygon>
            <polyline id="Fill-8" points="160.642256 0 160.638045 512 160.814327 512 160.818538 0"></polyline>
            <polygon id="Fill-9" points="255.728658 0 255.904338 0 255.904338 512 255.728658 512"></polygon>
            <polygon id="Fill-10" points="480.668729 0 480.846816 0 480.846816 512 480.668729 512"></polygon>
            <polygon id="Fill-11" points="0 480.649994 512 480.649994 512 480.826276 0 480.826276"></polygon>
            <polygon id="Fill-12" points="350.780165 0 350.956447 0 350.956447 512 350.780165 512"></polygon>
            <path d="M350.91734,255.815897 L350.826491,255.815897 C350.826491,282.053039 340.192414,305.804785 322.998599,322.998599 C305.804785,340.193015 282.053039,350.826491 255.815897,350.826491 C229.579356,350.826491 205.827008,340.193015 188.633194,322.998599 C171.43938,305.804785 160.805302,282.053039 160.805302,255.815897 C160.805302,229.579356 171.43938,205.826407 188.633194,188.632592 C205.827008,171.43938 229.578754,160.805302 255.815897,160.805302 C282.053039,160.805302 305.804785,171.43938 322.998599,188.632592 C340.192414,205.826407 350.826491,229.578754 350.826491,255.815897 L351.007586,255.815897 C351.007586,203.242942 308.388851,160.62541 255.815897,160.62541 C203.242942,160.62541 160.62541,203.242942 160.62541,255.815897 C160.62541,308.390054 203.242942,351.007586 255.815897,351.007586 C308.388851,351.007586 351.007586,308.390054 351.007586,255.815897 L350.91734,255.815897" id="Fill-13"></path>
            <path d="M480.654289,255.816498 L480.565246,255.816498 C480.565246,317.879201 455.409861,374.065034 414.738049,414.737448 C374.064432,455.40926 317.880404,480.564644 255.816498,480.564644 C193.753194,480.564644 137.564954,455.40926 96.8925405,414.737448 C56.2225335,374.065034 31.0653443,317.879201 31.0653443,255.816498 C31.0653443,193.753194 56.2225335,137.564954 96.8925405,96.8949471 C137.564954,56.2231351 193.751389,31.0677509 255.816498,31.0677509 C317.880404,31.0677509 374.064432,56.2231351 414.738049,96.8949471 C455.409861,137.564954 480.565246,193.753194 480.565246,255.816498 L480.742731,255.816498 C480.742731,131.593626 380.039972,30.8908672 255.816498,30.8908672 C131.592423,30.8908672 30.8902656,131.593626 30.8902656,255.816498 C30.8902656,380.03937 131.592423,480.742129 255.816498,480.742129 C380.039972,480.742129 480.742731,380.03937 480.742731,255.816498 L480.654289,255.816498" id="Fill-14"></path>
            <path d="M390.258313,255.816498 L390.169269,255.816498 C390.169269,292.917546 375.131751,326.506792 350.819271,350.819873 C326.503784,375.132353 292.916343,390.169871 255.816498,390.169871 C218.714848,390.169871 185.128009,375.132353 160.813725,350.819873 C136.501246,326.506792 121.462524,292.917546 121.462524,255.816498 C121.462524,218.71545 136.501246,185.128611 160.813725,160.814327 C185.128009,136.501246 218.714848,121.463727 255.816498,121.463727 C292.916343,121.463727 326.503784,136.501246 350.819271,160.814327 C375.131751,185.128611 390.169269,218.71545 390.169269,255.816498 L390.345551,255.816498 C390.345551,181.519342 330.114858,121.286844 255.816498,121.286844 C181.517537,121.286844 121.287445,181.519342 121.287445,255.816498 C121.287445,330.114858 181.517537,390.346153 255.816498,390.346153 C330.114858,390.346153 390.345551,330.114858 390.345551,255.816498 L390.258313,255.816498" id="Fill-15"></path>
        </g>
    </g>
</svg>