<svg width="128" height="128" xmlns="http://www.w3.org/2000/svg" xmlns:xlink="http://www.w3.org/1999/xlink"><defs><path d="M78.598 77.482l-.006 31.477a209.056 209.056 0 01-30.035-21.17 205.742 205.742 0 0030.04-10.307zm0-17.325v16.235a205.42 205.42 0 01-30.97 10.61 210.528 210.528 0 01-13.474-12.597 206.22 206.22 0 0044.444-14.248zm-.002-9.462l.003 8.365a205.426 205.426 0 01-45.274 14.493 209.367 209.367 0 01-11.568-12.977A205.936 205.936 0 0053.26 52.73a25.846 25.846 0 009.263 2.293c5.682.33 11.318-1.208 16.072-4.328zm-33.63-4.065c2 2.238 4.379 4.082 7.009 5.468a204.923 204.923 0 01-30.943 7.59 209.46 209.46 0 01-9.958-13.338 205.562 205.562 0 0029.271-7.316 24.344 24.344 0 004.62 7.596zm33.633-4.294l-.003 3.378c-4.437 3.742-10.116 5.647-15.841 5.316a22.02 22.02 0 01-3.37-.457 206.63 206.63 0 0019.214-8.237zm-27.517-1.873c2.796 3.376 6.897 5.51 11.38 5.91 2.035.184 4.076.005 6.036-.51a202.853 202.853 0 01-10.824 4.271c-3.75-1.135-7.122-3.256-9.726-6.17a20.387 20.387 0 01-3.815-6.219 203.749 203.749 0 004.401-1.601c.6 1.54 1.456 3.003 2.548 4.319zm-8.125-23.104a23.1 23.1 0 00-4.111 11.763 23.612 23.612 0 001.161 8.966 204.837 204.837 0 01-29.55 7.36A208.866 208.866 0 010 28.321a206.578 206.578 0 0042.306-10.719l.651-.243zm35.64 21.54l.002 2.322a206.173 206.173 0 01-4.854 2.315c.6-.392 1.18-.82 1.736-1.284a18.4 18.4 0 003.115-3.354zm-.513-9.808c-.321 3.961-2.19 7.597-5.167 10.091-2.858 2.382-6.498 3.532-10.098 3.207-3.427-.305-6.545-1.928-8.657-4.48a11.703 11.703 0 01-1.902-3.217 175.18 175.18 0 004.255-1.747c.146.395.331.78.553 1.153 1.097 1.828 2.968 3.13 5.157 3.594 2.357.5 4.874-.02 6.943-1.44 2.22-1.529 3.726-3.94 4.165-6.684a10.79 10.79 0 00-.258-4.552c1.4-.743 2.79-1.505 4.17-2.284.72 2.034 1.013 4.2.84 6.359zM62.5 11.794c4.59.325 8.812 2.41 11.736 5.775a16.141 16.141 0 012.641 4.218 184.27 184.27 0 01-4.113 2.267 11.352 11.352 0 00-1.602-2.889c-1.943-2.583-4.932-4.286-8.273-4.705-3.509-.441-7.109.572-9.96 2.816-3.008 2.364-4.944 5.882-5.356 9.765a15.075 15.075 0 00.626 6.154c-1.457.556-2.926 1.09-4.401 1.609a19.597 19.597 0 01-.96-7.424c.331-5.117 2.666-9.844 6.47-13.131 3.678-3.196 8.426-4.79 13.192-4.455zm6.884 17.144c-.267 1.668-1.171 3.116-2.481 4.018-1.171.803-2.573 1.093-3.848.823-1.117-.237-2.04-.879-2.553-1.735a3.078 3.078 0 01-.312-.71l1.185-.534c.345.282.785.451 1.265.451 1.362 0 2.47-.995 2.721-2.313 1.354-.652 2.7-1.32 4.039-2 .093.661.09 1.336-.016 2zm-6.993-8.51c2.277.287 4.289 1.433 5.583 3.153.55.721.953 1.517 1.2 2.343a174.53 174.53 0 01-3.8 1.897c-.163-.97-.77-1.853-1.661-2.42-1.189-.757-2.735-.858-4.13-.296-1.503.605-2.673 1.898-3.204 3.527a6.487 6.487 0 00-.15 3.346c-1.418.607-2.848 1.196-4.286 1.77a11.01 11.01 0 01-.393-4.284c.299-2.813 1.694-5.348 3.851-7.043 2.016-1.587 4.547-2.3 6.99-1.992zm-1.746 8.676l-.005.147.006.15c.015.2.06.392.129.572l-.68.306c.01-.084.025-.168.044-.25l.047-.17.062-.165c.068-.161.154-.306.252-.43l.103-.119.042-.041zM78.597 0v16.677a20.344 20.344 0 00-1.34-1.729c-3.291-3.786-7.885-6.256-12.924-6.978A207.108 207.108 0 0078.597 0z" id="a"/></defs><g fill="none" fill-rule="evenodd"><use fill="#084A80" xlink:href="#a" transform="translate(26 10)"/><g opacity=".5" stroke="#07335A" stroke-linecap="round" stroke-linejoin="round"><path d="M1 44.007l16-.004M7 39.007l16-.004M70 16.007l16-.004M78 11.007l16-.004"/></g></g></svg>