<svg width="120" height="120" xmlns="http://www.w3.org/2000/svg"><path d="M9 0h2v20H9V0zm25.1339746.83974596l1.7320508 1-10 17.32050804-1.7320508-1 10-17.32050804zm-20 20.00000004l1.7320508 1-10 17.320508-1.7320508-1 10-17.320508zM58.160254 4.1339746l1 1.7320508-17.320508 10-1-1.7320508 17.320508-10zm-40 40l1 1.7320508-17.32050804 10-1-1.7320508 17.32050804-10zM80 9v2H60V9h20zM20 69v2H0v-2h20zm79.3205081-55l-1 1.7320508L81 5.73205081 82 4l17.3205081 10zm-80 80l-1 1.7320508L1 85.7320508 2 84l17.3205081 10zm96.5455169-75.839746l-1.73205 1-10-17.32050804 1.73205-1 10 17.32050804zm-99.9999996 100l-1.7320508 1-10-17.320508 1.7320508-1 10 17.320508zM38.160254 24.1339746l1 1.7320508-17.320508 10-1-1.7320508 17.320508-10zM60 29v2H40v-2h20zm19.3205081 5l-1 1.7320508-17.3205081-10L62 24l17.3205081 10zm16.5455173 4.160254l-1.7320508 1-10-17.320508 1.7320508-1 10 17.320508zM111 40h-2V20h2v20zm3.133975.839746l1.73205 1-10 17.320508-1.73205-1 10-17.320508zM40 49v2H20v-2h20zm19.3205081 5l-1 1.7320508-17.3205081-10L42 44l17.3205081 10zm16.5455173 4.160254l-1.7320508 1-10-17.320508 1.7320508-1 10 17.320508zM91 60h-2V40h2v20zm3.1339746.839746l1.7320508 1-10 17.320508-1.7320508-1 10-17.320508zm24.0262794 3.2942286l1 1.7320508-17.320508 10-1-1.7320508 17.320508-10zM39.3205081 74l-1 1.7320508-17.3205081-10L22 64l17.3205081 10zm16.5455173 4.160254l-1.7320508 1-10-17.320508 1.7320508-1 10 17.320508zM71 80h-2V60h2v20zm3.1339746.839746l1.7320508 1-10 17.320508-1.7320508-1 10-17.320508zm24.0262794 3.2942286l1 1.7320508-17.320508 10-1-1.7320508 17.320508-10zM120 89v2h-20v-2h20zm-84.1339746 9.160254l-1.7320508 1-10-17.320508 1.7320508-1 10 17.320508zM51 100h-2V80h2v20zm3.1339746.839746l1.7320508 1-10 17.320508-1.7320508-1 10-17.320508zm24.0262794 3.294229l1 1.73205-17.320508 10-1-1.73205 17.320508-10zM100 109v2H80v-2h20zm19.320508 5l-1 1.732051-17.320508-10L102 104l17.320508 10zM31 120h-2v-20h2v20z" fill="#FFF" fill-rule="nonzero" fill-opacity=".1"/></svg>