<svg width="267" height="32" xmlns="http://www.w3.org/2000/svg"><g fill="#000" fill-rule="nonzero"><path d="M7.73.758H6.715l-.826 3.954c-.636-.623-1.408-.704-1.76-.704-1.584 0-3.114 2.004-3.114 4.034 0 1.273.637 2.248 1.72 2.248.771 0 1.543-.366 2.112-.826l-.15.69h1.03L7.73.759zM5.077 8.354c-.054.23-.163.433-.582.758-.312.23-.677.366-1.043.366-.528 0-1.394-.285-1.394-1.584 0-1.612 1.07-3.074 2.518-3.074.704 0 1.002.487 1.096.704l-.595 2.83zM13.732 6.431c0-1.394-.907-2.491-2.302-2.491-1.909 0-3.669 2.017-3.669 3.926 0 1.395.935 2.424 2.329 2.424 1.828 0 3.642-1.828 3.642-3.859zm-3.466 3.02c-.636 0-1.449-.366-1.449-1.666 0-1.652 1.084-3.033 2.437-3.033.84 0 1.476.556 1.476 1.612 0 1.354-.961 3.087-2.464 3.087zM19.141 4.55c.014-.041.054-.123.054-.163 0-.027-.622-.447-1.814-.447-.284 0-1.137 0-1.814.528-.623.501-.785 1.246-.785 1.557 0 1.137 1.15 1.381 1.706 1.503.582.122 1.137.23 1.137.84 0 .013 0 1.083-1.462 1.083-.785 0-1.462-.285-1.909-.677l-.298.73c-.013.041-.054.123-.054.177 0 .04.826.609 2.098.609 2.22 0 2.6-1.706 2.6-2.207 0-1.205-1.165-1.449-1.638-1.557-.731-.149-1.192-.257-1.192-.785 0-.04 0-1.002 1.327-1.002.799 0 1.327.216 1.76.5l.284-.69zM24.67 7.108a6.24 6.24 0 00.135-1.137c0-1.584-.975-2.031-1.855-2.031-1.733 0-3.425 1.95-3.425 3.9 0 1.475.961 2.45 2.274 2.45 1.192 0 2.22-.663 2.261-.745.014-.054.081-.555.109-.84-.813.597-1.639.773-2.18.773-.961 0-1.516-.8-1.516-1.76 0-.082 0-.217.027-.434.04-.162.054-.176.284-.176h3.885zm-3.886-.73c.433-.976 1.246-1.626 2.004-1.626.622 0 1.245.352 1.245 1.463 0 .067 0 .108-.013.162h-3.236zM28.93 0c-2.031 1.814-2.546 4.563-2.546 6.77 0 2.383.583 5.036 2.546 6.783h.812c-.528-.487-1.354-1.543-1.828-3.073-.365-1.205-.5-2.465-.5-3.697 0-3.994 1.42-5.944 2.328-6.783h-.812zM40.786 6.039c.04-.19.095-.447.095-.718 0-1.015-.677-1.313-1.476-1.313-1.34 0-2.207 1.07-2.22 1.083-.095-.853-.772-1.083-1.462-1.083-.867 0-1.57.433-2.14.988l.19-.92h-.961l-1.286 6.079h1.029l.65-3.074c.121-.514.487-2.26 1.827-2.26.934 0 1.083.473 1.083.88 0 .162-.013.256-.04.351l-.867 4.103h1.03l.649-3.074c.122-.514.487-2.26 1.828-2.26.934 0 1.083.473 1.083.88 0 .162-.014.256-.04.351l-.867 4.103h1.029l.866-4.116zM47.586 4.522c0-.027-.433-.311-.799-.433-.298-.108-.65-.149-1.11-.149-2.125 0-3.682 2.153-3.682 3.926 0 1.26.799 2.424 2.288 2.424.92 0 1.665-.311 2.301-.69.054-.325.054-.353.122-.908-.433.298-1.205.759-2.234.759-.88 0-1.435-.61-1.435-1.652 0-1.205.813-3.02 2.478-3.02.73 0 1.164.136 1.733.61l.338-.867zM54.452 4.008c-.5 0-1.218.054-2.18.433-.27-.257-.69-.433-1.164-.433-1.367 0-2.64 1.327-2.64 2.653 0 .488.217.867.217.88-.23.23-.677.786-.677 1.503 0 .407.15.65.163.677-.867.46-1.178 1.192-1.178 1.639 0 .826.975 1.57 2.586 1.57 1.421 0 3.37-.69 3.37-2.22 0-.88-.554-1.503-2.382-1.503h-1.15c-.258 0-.637 0-.637-.542 0-.149.013-.365.27-.677.217.19.61.393 1.138.393 1.34 0 2.626-1.3 2.626-2.654 0-.5-.216-.88-.216-.893.04.027.067.027.08.027.069 0 .488-.054 1.043-.054.285 0 .393 0 .704.027l.027-.826zm-4.115 3.628c-.555 0-.934-.338-.934-.988 0-.799.514-1.896 1.543-1.896.352 0 .934.163.934.989 0 .853-.528 1.895-1.543 1.895zm.027 2.546c.893 0 1.61.19 1.61.799 0 .704-1.123 1.205-2.233 1.205-1.056 0-1.787-.407-1.787-.935 0-.203.203-1.07 1.246-1.07h1.164zM60.756.501c0-.014.081-.217.081-.244A.254.254 0 0060.594 0c-.068 0-.19 0-.298.298l-4.535 12.74c0 .014-.082.217-.082.244 0 .163.136.258.244.258.081 0 .203-.014.298-.298L60.756.5zM66.044 6.458l2.708-2.315H67.52l-3.195 2.722 1.3-6.107h-.989l-2.004 9.397h.948l.42-1.95 1.245-1.07 1.422 3.02h1.11zM75.603 4.008c-.5 0-1.218.054-2.18.433-.27-.257-.69-.433-1.164-.433-1.367 0-2.64 1.327-2.64 2.653 0 .488.217.867.217.88-.23.23-.677.786-.677 1.503 0 .407.15.65.163.677-.867.46-1.178 1.192-1.178 1.639 0 .826.975 1.57 2.586 1.57 1.421 0 3.37-.69 3.37-2.22 0-.88-.555-1.503-2.382-1.503h-1.15c-.258 0-.637 0-.637-.542 0-.149.013-.365.27-.677.217.19.61.393 1.138.393 1.34 0 2.626-1.3 2.626-2.654 0-.5-.216-.88-.216-.893.04.027.067.027.08.027.068 0 .488-.054 1.043-.054.285 0 .393 0 .704.027l.027-.826zm-4.115 3.628c-.555 0-.934-.338-.934-.988 0-.799.514-1.896 1.543-1.896.352 0 .934.163.934.989 0 .853-.528 1.895-1.543 1.895zm.027 2.546c.893 0 1.61.19 1.61.799 0 .704-1.123 1.205-2.233 1.205-1.056 0-1.787-.407-1.787-.935 0-.203.203-1.07 1.246-1.07h1.164zM81.907.501c0-.014.081-.217.081-.244A.254.254 0 0081.745 0c-.068 0-.19 0-.298.298l-4.535 12.74c0 .014-.082.217-.082.244 0 .163.136.258.244.258.081 0 .203-.014.298-.298L81.907.5zM93.03 6.039c.04-.19.095-.447.095-.718 0-1.015-.677-1.313-1.476-1.313-1.34 0-2.207 1.07-2.22 1.083-.095-.853-.772-1.083-1.462-1.083-.867 0-1.57.433-2.14.988l.19-.92h-.961l-1.286 6.079h1.029l.65-3.074c.121-.514.487-2.26 1.827-2.26.934 0 1.083.473 1.083.88 0 .162-.013.256-.04.351l-.867 4.103h1.029l.65-3.074c.122-.514.487-2.26 1.827-2.26.935 0 1.084.473 1.084.88 0 .162-.014.256-.041.351l-.867 4.103h1.03l.866-4.116zM97.298.961h-1.164l-.244 1.165h1.165L97.298.96zm-3.032 9.194h1.002l1.272-6.012h-1.002l-1.272 6.012zM102.934 6.039c.041-.203.095-.447.095-.718 0-1.015-.663-1.313-1.475-1.313-.786 0-1.517.379-2.126.988l.19-.92h-.962l-1.286 6.079h1.03l.649-3.074c.122-.528.487-2.26 1.828-2.26 1.07 0 1.07.622 1.07.88 0 .162-.014.256-.041.351l-.867 4.103h1.029l.866-4.116zM104.96 13.553c2.031-1.814 2.545-4.563 2.545-6.77 0-2.383-.582-5.036-2.545-6.783h-.812c.528.487 1.354 1.544 1.828 3.073.365 1.205.5 2.465.5 3.697 0 3.994-1.42 5.944-2.328 6.783h.812zM116.847 6.39l-2.708-2.694c-.162-.162-.19-.19-.298-.19a.28.28 0 00-.27.272c0 .094.027.121.176.27l2.707 2.722-2.707 2.721c-.15.15-.176.176-.176.271 0 .149.135.27.27.27.109 0 .136-.026.298-.189l2.694-2.694 2.803 2.803c.027.013.121.08.203.08.162 0 .27-.121.27-.27 0-.027 0-.081-.04-.149-.014-.027-2.166-2.153-2.843-2.843l2.477-2.478c.068-.081.271-.257.339-.338.013-.028.067-.082.067-.176a.263.263 0 00-.27-.271c-.109 0-.163.054-.312.203l-2.68 2.68zM135.204 4.143h-1.001l-1.68 3.33c-.107.231-.703 1.395-.866 1.923h-.013c.013-.149.013-.243.013-.446 0-.65-.054-1.381-.108-2.031l-.23-2.776h-.92l-1.476 2.925c-.46.907-.894 1.882-1.016 2.274l-.013-.013c.013-.082.013-.46.013-.69 0-.163 0-.8-.08-1.815l-.218-2.68h-1.028l.541 6.01h1.056c.284-.609.487-.934 1.286-2.572.447-.893.975-1.977 1.192-2.64h.013c-.04.352-.04.596-.04.758 0 .772.094 1.963.121 2.329l.176 2.126h1.178l3.1-6.012zM139.92 7.108a6.24 6.24 0 00.135-1.137c0-1.584-.975-2.031-1.855-2.031-1.733 0-3.425 1.95-3.425 3.9 0 1.475.961 2.45 2.275 2.45 1.191 0 2.22-.663 2.26-.745.014-.054.082-.555.109-.84-.812.597-1.638.773-2.18.773-.961 0-1.516-.8-1.516-1.76 0-.082 0-.217.027-.434.04-.162.054-.176.284-.176h3.886zm-3.886-.73c.433-.976 1.246-1.626 2.004-1.626.623 0 1.245.352 1.245 1.463 0 .067 0 .108-.013.162h-3.236zM143.74.961h-1.164l-.244 1.165h1.164L143.74.96zm-3.033 9.194h1.002l1.273-6.012h-1.002l-1.273 6.012zM150.364 4.008c-.5 0-1.218.054-2.18.433-.27-.257-.69-.433-1.164-.433-1.367 0-2.64 1.327-2.64 2.653 0 .488.217.867.217.88-.23.23-.677.786-.677 1.503 0 .407.15.65.163.677-.867.46-1.178 1.192-1.178 1.639 0 .826.975 1.57 2.586 1.57 1.421 0 3.37-.69 3.37-2.22 0-.88-.554-1.503-2.382-1.503h-1.15c-.258 0-.637 0-.637-.542 0-.149.013-.365.27-.677.217.19.61.393 1.138.393 1.34 0 2.626-1.3 2.626-2.654 0-.5-.216-.88-.216-.893.04.027.067.027.08.027.069 0 .488-.054 1.043-.054.285 0 .393 0 .704.027l.027-.826zm-4.115 3.628c-.555 0-.934-.338-.934-.988 0-.799.514-1.896 1.543-1.896.352 0 .934.163.934.989 0 .853-.528 1.895-1.543 1.895zm.027 2.546c.893 0 1.61.19 1.61.799 0 .704-1.123 1.205-2.233 1.205-1.056 0-1.787-.407-1.787-.935 0-.203.203-1.07 1.246-1.07h1.164zM156.004 6.039c.04-.203.095-.447.095-.718 0-1.015-.664-1.313-1.476-1.313-1.056 0-1.773.65-2.071.934l.893-4.184h-1.002l-2.003 9.397h1.029l.65-3.074c.121-.528.487-2.26 1.827-2.26 1.07 0 1.07.622 1.07.88 0 .162-.014.256-.04.351l-.867 4.103h1.029l.866-4.116zM159.623 4.928h1.868l.163-.785h-1.869l.366-1.72h-.934l-.366 1.72h-1.137l-.162.785h1.11l-.786 3.737c-.027.136-.08.366-.08.61 0 .758.351 1.015.839 1.015.974 0 1.76-.38 2.057-.528-.013-.406-.027-.758-.054-.758-.013 0-.027 0-.108.054-.501.338-.934.393-1.191.393-.285 0-.501-.136-.501-.623 0-.095 0-.19.04-.38l.745-3.52zM165.57 0c-2.03 1.814-2.545 4.563-2.545 6.77 0 2.383.582 5.036 2.545 6.783h.812c-.528-.487-1.354-1.543-1.827-3.073-.366-1.205-.501-2.465-.501-3.697 0-3.994 1.421-5.944 2.328-6.783h-.812zM171.592 6.458l2.707-2.315h-1.232l-3.195 2.722 1.3-6.107h-.988l-2.004 9.397h.948l.42-1.95 1.245-1.07 1.421 3.02h1.11zM181.15 4.008c-.5 0-1.218.054-2.179.433-.27-.257-.69-.433-1.164-.433-1.367 0-2.64 1.327-2.64 2.653 0 .488.217.867.217.88-.23.23-.677.786-.677 1.503 0 .407.149.65.162.677-.866.46-1.178 1.192-1.178 1.639 0 .826.975 1.57 2.586 1.57 1.422 0 3.371-.69 3.371-2.22 0-.88-.555-1.503-2.383-1.503h-1.15c-.258 0-.637 0-.637-.542 0-.149.014-.365.271-.677.217.19.61.393 1.137.393 1.34 0 2.627-1.3 2.627-2.654 0-.5-.217-.88-.217-.893.04.027.068.027.081.027.068 0 .488-.054 1.043-.054.284 0 .392 0 .704.027l.027-.826zm-4.115 3.628c-.555 0-.934-.338-.934-.988 0-.799.515-1.896 1.544-1.896.352 0 .934.163.934.989 0 .853-.528 1.895-1.544 1.895zm.027 2.546c.894 0 1.611.19 1.611.799 0 .704-1.123 1.205-2.233 1.205-1.056 0-1.787-.407-1.787-.935 0-.203.203-1.07 1.245-1.07h1.164zM183.19 13.553c2.031-1.814 2.545-4.563 2.545-6.77 0-2.383-.582-5.036-2.545-6.783h-.812c.528.487 1.354 1.544 1.828 3.073.365 1.205.5 2.465.5 3.697 0 3.994-1.42 5.944-2.328 6.783h.812zM195.077 6.39l-2.708-2.694c-.162-.162-.19-.19-.298-.19a.28.28 0 00-.27.272c0 .094.027.121.176.27l2.707 2.722-2.707 2.721c-.15.15-.176.176-.176.271 0 .149.135.27.27.27.109 0 .136-.026.298-.189l2.694-2.694 2.803 2.803c.027.013.121.08.203.08.162 0 .27-.121.27-.27 0-.027 0-.081-.04-.149-.014-.027-2.166-2.153-2.843-2.843l2.477-2.478c.068-.081.271-.257.339-.338.013-.028.067-.082.067-.176a.263.263 0 00-.27-.271c-.109 0-.163.054-.312.203l-2.68 2.68zM208.858 1.273c-.555-.203-.947-.271-1.421-.271-1.828 0-3.52 1.882-3.52 4.793 0 3.886 1.692 4.644 2.762 4.644.812 0 1.394-.325 1.922-.948.61-.73.799-1.367.799-2.342 0-1.733-.893-3.209-2.125-3.209-1.002 0-1.76.487-2.261 1.097.149-2.004 1.11-3.263 2.45-3.263.582 0 1.002.135 1.394.284v-.785zm-3.83 5.93c0-.108 0-.284.013-.38 0-.947.541-2.07 1.706-2.07.446 0 .88.121 1.272.798.298.542.312 1.083.312 1.611 0 .556 0 1.138-.407 1.747-.243.366-.582.718-1.245.718-1.408 0-1.611-1.99-1.652-2.424zM216.041 5.74c0-.906-.04-1.949-.392-2.91-.582-1.517-1.638-1.828-2.356-1.828-.88 0-1.733.447-2.234 1.516-.446.962-.527 2.058-.527 3.223 0 1.476.121 2.315.555 3.263a2.417 2.417 0 002.193 1.435c.893 0 1.746-.487 2.206-1.422.46-.961.555-1.95.555-3.276zm-2.748 3.887c-1.733 0-1.733-2.776-1.733-4.049 0-.88 0-1.706.244-2.477.325-.962.92-1.287 1.476-1.287 1.733 0 1.733 2.519 1.733 3.764 0 .867 0 1.76-.244 2.6-.366 1.3-1.124 1.449-1.476 1.449zM220.206 0c-2.031 1.814-2.546 4.563-2.546 6.77 0 2.383.582 5.036 2.546 6.783h.812c-.528-.487-1.354-1.543-1.828-3.073-.365-1.205-.5-2.465-.5-3.697 0-3.994 1.42-5.944 2.328-6.783h-.812zM232.062 6.039c.04-.19.095-.447.095-.718 0-1.015-.677-1.313-1.476-1.313-1.34 0-2.207 1.07-2.22 1.083-.095-.853-.772-1.083-1.462-1.083-.867 0-1.57.433-2.14.988l.19-.92h-.961l-1.286 6.079h1.029l.65-3.074c.121-.514.487-2.26 1.827-2.26.934 0 1.083.473 1.083.88 0 .162-.013.256-.04.351l-.867 4.103h1.03l.649-3.074c.122-.514.487-2.26 1.828-2.26.934 0 1.083.473 1.083.88 0 .162-.014.256-.041.351l-.866 4.103h1.028l.867-4.116zM236.33.961h-1.164l-.244 1.165h1.165L236.33.96zm-3.032 9.194h1.002l1.272-6.012h-1.002l-1.272 6.012zM241.967 6.039c.04-.203.094-.447.094-.718 0-1.015-.663-1.313-1.475-1.313-.785 0-1.517.379-2.126.988l.19-.92h-.961l-1.287 6.079h1.03l.65-3.074c.121-.528.487-2.26 1.827-2.26 1.07 0 1.07.622 1.07.88 0 .162-.014.256-.041.351l-.867 4.103h1.03l.866-4.116zM248.257.501c0-.014.081-.217.081-.244a.254.254 0 00-.244-.257c-.067 0-.19 0-.297.298l-4.536 12.74c0 .014-.08.217-.08.244 0 .163.135.258.243.258.081 0 .203-.014.298-.298L248.257.5zM255.684 6.039c.04-.203.094-.447.094-.718 0-1.015-.663-1.313-1.475-1.313-1.056 0-1.774.65-2.072.934l.894-4.184h-1.002l-2.004 9.397h1.03l.65-3.074c.121-.528.487-2.26 1.827-2.26 1.07 0 1.07.622 1.07.88 0 .162-.014.256-.041.351l-.867 4.103h1.03l.866-4.116zM261.482 4.008c-1.516.027-2.45 1.123-2.572 1.259l.244-1.192h-.935l-1.286 6.08h1.002l.46-2.194.19-.826c.27-1.218 1.38-2.193 2.708-2.22l.19-.907zM263.388 13.553c2.031-1.814 2.546-4.563 2.546-6.77 0-2.383-.583-5.036-2.546-6.783h-.812c.528.487 1.354 1.544 1.828 3.073.365 1.205.5 2.465.5 3.697 0 3.994-1.42 5.944-2.328 6.783h.812zM0 15.659h267v1H0zM24.444 22.97c0-.028-.433-.312-.798-.434-.298-.108-.65-.149-1.11-.149-2.126 0-3.683 2.153-3.683 3.926 0 1.26.799 2.424 2.288 2.424.92 0 1.665-.311 2.301-.69.055-.325.055-.353.122-.908-.433.298-1.205.759-2.233.759-.88 0-1.436-.61-1.436-1.652 0-1.205.813-3.02 2.478-3.02.731 0 1.164.136 1.733.61l.338-.867zM30.647 24.878c0-1.394-.907-2.491-2.301-2.491-1.91 0-3.67 2.017-3.67 3.926 0 1.395.935 2.424 2.33 2.424 1.827 0 3.641-1.828 3.641-3.859zm-3.466 3.02c-.636 0-1.448-.366-1.448-1.666 0-1.652 1.083-3.033 2.437-3.033.839 0 1.475.555 1.475 1.612 0 1.354-.96 3.087-2.464 3.087zM36.95 24.486c.04-.203.095-.447.095-.718 0-1.015-.663-1.313-1.476-1.313-.785 0-1.516.379-2.125.988l.19-.92h-.962l-1.286 6.079h1.029l.65-3.074c.122-.528.487-2.26 1.827-2.26 1.07 0 1.07.622 1.07.88 0 .162-.014.256-.04.351l-.867 4.103h1.029l.866-4.116zM43.764 22.97c0-.028-.433-.312-.799-.434-.298-.108-.65-.149-1.11-.149-2.125 0-3.682 2.153-3.682 3.926 0 1.26.799 2.424 2.288 2.424.92 0 1.665-.311 2.301-.69.054-.325.054-.353.122-.908-.433.298-1.205.759-2.234.759-.88 0-1.435-.61-1.435-1.652 0-1.205.812-3.02 2.478-3.02.73 0 1.164.136 1.733.61l.338-.867zM49.195 25.555a6.24 6.24 0 00.136-1.137c0-1.584-.975-2.031-1.855-2.031-1.733 0-3.425 1.95-3.425 3.9 0 1.475.96 2.45 2.274 2.45 1.191 0 2.22-.663 2.261-.745.014-.054.081-.555.108-.84-.812.597-1.638.773-2.18.773-.96 0-1.516-.8-1.516-1.76 0-.082 0-.217.027-.434.041-.162.055-.176.285-.176h3.885zm-3.885-.73c.433-.976 1.245-1.626 2.003-1.626.623 0 1.246.352 1.246 1.463 0 .067 0 .108-.014.162H45.31zM55.533 24.486c.041-.203.095-.447.095-.718 0-1.015-.663-1.313-1.475-1.313-.786 0-1.517.379-2.126.988l.19-.92h-.962l-1.286 6.079H51l.649-3.074c.122-.528.487-2.26 1.828-2.26 1.07 0 1.07.622 1.07.88 0 .162-.014.256-.041.351l-.867 4.103h1.029l.866-4.116zM59.152 23.375h1.869l.162-.785h-1.868l.365-1.72h-.934l-.365 1.72h-1.138l-.162.785h1.11l-.785 3.737c-.027.136-.081.366-.081.61 0 .758.352 1.015.839 1.015.975 0 1.76-.38 2.058-.528-.014-.406-.027-.758-.054-.758-.014 0-.027 0-.109.054-.5.338-.934.393-1.191.393-.284 0-.5-.136-.5-.623 0-.095 0-.19.04-.38l.744-3.52zM66.119 22.455c-1.516.027-2.45 1.123-2.572 1.259l.243-1.192h-.934l-1.286 6.08h1.002l.46-2.194.19-.826c.27-1.218 1.38-2.193 2.707-2.22l.19-.907zM71.179 24.553c.027-.149.04-.19.04-.446 0-.786-.487-1.72-1.787-1.72-.961 0-1.651.284-2.206.582l-.095.88c.474-.298 1.178-.677 2.139-.677.623 0 .907.46.907 1.043 0 .257-.15.961-.19.988-.027.014-.054.014-.379.027-.203.014-3.71.122-3.71 2.22 0 .163.028 1.287 1.192 1.287.122 0 1.368 0 2.329-.636l-.109.5h1.002l.867-4.048zm-1.327 1.354c-.081.393-.217 1.07-.257 1.178-.217.542-.975.84-1.652.84-.514 0-1.042-.217-1.042-.745 0-1.07 2.18-1.273 2.95-1.273zM74.79 23.375h1.868l.163-.785h-1.869l.366-1.72h-.934l-.366 1.72h-1.137l-.162.785h1.11l-.786 3.737c-.027.136-.08.366-.08.61 0 .758.351 1.015.839 1.015.974 0 1.76-.38 2.057-.528-.013-.406-.027-.758-.054-.758-.013 0-.027 0-.108.054-.501.338-.934.393-1.191.393-.285 0-.501-.136-.501-.623 0-.095 0-.19.04-.38l.745-3.52zM80.24 19.408h-1.164l-.244 1.165h1.164l.244-1.165zm-3.032 9.194h1.001l1.273-6.012H78.48l-1.272 6.012zM86.201 24.878c0-1.394-.907-2.491-2.301-2.491-1.91 0-3.67 2.017-3.67 3.926 0 1.395.935 2.424 2.33 2.424 1.827 0 3.641-1.828 3.641-3.859zm-3.466 3.02c-.636 0-1.448-.366-1.448-1.666 0-1.652 1.083-3.033 2.437-3.033.84 0 1.475.555 1.475 1.612 0 1.354-.96 3.087-2.464 3.087zM92.504 24.486c.04-.203.095-.447.095-.718 0-1.015-.663-1.313-1.476-1.313-.785 0-1.516.379-2.125.988l.19-.92h-.962l-1.286 6.079h1.029l.65-3.074c.122-.528.487-2.26 1.827-2.26 1.07 0 1.07.622 1.07.88 0 .162-.014.256-.04.351l-.867 4.103h1.029l.866-4.116zM96.588 18.447c-2.03 1.814-2.545 4.563-2.545 6.77 0 2.383.582 5.036 2.545 6.783h.812c-.528-.487-1.354-1.543-1.828-3.073-.365-1.205-.5-2.465-.5-3.697 0-3.994 1.421-5.944 2.328-6.783h-.812zM108.444 24.486c.04-.19.095-.447.095-.718 0-1.015-.677-1.313-1.476-1.313-1.34 0-2.206 1.07-2.22 1.083-.095-.853-.772-1.083-1.462-1.083-.866 0-1.57.433-2.139.988l.19-.92h-.962l-1.286 6.079h1.03l.649-3.074c.122-.514.487-2.26 1.828-2.26.934 0 1.083.473 1.083.88 0 .162-.014.256-.041.351l-.866 4.103h1.028l.65-3.074c.122-.514.488-2.26 1.828-2.26.934 0 1.083.473 1.083.88 0 .162-.014.256-.04.351l-.867 4.103h1.029l.866-4.116zM116.22 22.455c-.502 0-1.22.054-2.18.433-.271-.257-.691-.433-1.165-.433-1.367 0-2.64 1.327-2.64 2.653 0 .488.217.867.217.88-.23.23-.677.786-.677 1.503 0 .407.149.65.162.677-.866.46-1.177 1.192-1.177 1.639 0 .826.974 1.57 2.585 1.57 1.422 0 3.371-.69 3.371-2.22 0-.88-.555-1.503-2.382-1.503h-1.151c-.257 0-.636 0-.636-.542 0-.149.013-.365.27-.677.217.19.61.393 1.138.393 1.34 0 2.626-1.3 2.626-2.654 0-.5-.217-.88-.217-.893.041.027.068.027.082.027.067 0 .487-.054 1.042-.054.284 0 .393 0 .704.027l.027-.826zm-4.116 3.628c-.556 0-.935-.338-.935-.988 0-.799.515-1.896 1.544-1.896.352 0 .934.163.934.989 0 .853-.528 1.895-1.543 1.895zm.027 2.546c.893 0 1.61.19 1.61.799 0 .704-1.123 1.205-2.233 1.205-1.056 0-1.787-.407-1.787-.935 0-.203.203-1.07 1.245-1.07h1.165zM122.523 18.948c0-.014.081-.217.081-.244a.254.254 0 00-.243-.257c-.068 0-.19 0-.298.298l-4.536 12.74c0 .014-.08.217-.08.244 0 .163.135.257.243.257.081 0 .203-.013.298-.297l4.535-12.741zM133.646 24.486c.04-.19.094-.447.094-.718 0-1.015-.677-1.313-1.475-1.313-1.34 0-2.207 1.07-2.22 1.083-.095-.853-.772-1.083-1.463-1.083-.866 0-1.57.433-2.139.988l.19-.92h-.961l-1.286 6.079h1.028l.65-3.074c.122-.514.488-2.26 1.828-2.26.934 0 1.083.473 1.083.88 0 .162-.014.256-.04.351l-.867 4.103h1.029l.65-3.074c.121-.514.487-2.26 1.827-2.26.934 0 1.083.473 1.083.88 0 .162-.013.256-.04.351l-.867 4.103h1.03l.866-4.116zM138.212 19.205h-1.164l-2.004 9.397h5.375l.176-.867c-1.178.027-2.37.027-3.547.027h-.664l1.828-8.557zM142.53 32c2.03-1.814 2.545-4.563 2.545-6.77 0-2.383-.582-5.036-2.545-6.783h-.813c.528.487 1.354 1.544 1.828 3.073.365 1.205.5 2.465.5 3.697 0 3.994-1.42 5.944-2.328 6.783h.813zM154.416 24.838l-2.708-2.695c-.162-.162-.19-.19-.297-.19a.28.28 0 00-.271.272c0 .094.027.121.176.27l2.707 2.722-2.707 2.721c-.15.15-.176.176-.176.271 0 .149.135.27.27.27.109 0 .136-.026.298-.189l2.695-2.694 2.802 2.803c.027.013.122.08.203.08.162 0 .27-.121.27-.27 0-.027 0-.081-.04-.149-.013-.027-2.166-2.153-2.843-2.843l2.478-2.478c.067-.081.27-.257.338-.338.014-.028.068-.082.068-.176a.263.263 0 00-.271-.271c-.108 0-.162.054-.311.203l-2.681 2.68zM166.668 19.449h-.257c-.217.217-.867.853-2.329.88-.19 0-.203.014-.203.257v.542c.826 0 1.449-.203 1.733-.325v7.013h-1.652v.786h4.36v-.786h-1.652V19.45zM175.38 24.188c0-.907-.04-1.95-.392-2.911-.582-1.517-1.638-1.828-2.355-1.828-.88 0-1.733.447-2.234 1.516-.447.962-.528 2.058-.528 3.223 0 1.476.122 2.315.555 3.263a2.417 2.417 0 002.193 1.435c.894 0 1.746-.487 2.207-1.422.46-.961.555-1.95.555-3.276zm-2.747 3.886c-1.733 0-1.733-2.776-1.733-4.049 0-.88 0-1.706.243-2.477.325-.962.921-1.287 1.476-1.287 1.733 0 1.733 2.519 1.733 3.764 0 .867 0 1.76-.244 2.6-.365 1.3-1.123 1.449-1.475 1.449zM182.009 24.188c0-.907-.04-1.95-.393-2.911-.582-1.517-1.638-1.828-2.355-1.828-.88 0-1.733.447-2.234 1.516-.447.962-.528 2.058-.528 3.223 0 1.476.122 2.315.555 3.263a2.417 2.417 0 002.193 1.435c.893 0 1.746-.487 2.207-1.422.46-.961.555-1.95.555-3.276zm-2.748 3.886c-1.733 0-1.733-2.776-1.733-4.049 0-.88 0-1.706.243-2.477.325-.962.92-1.287 1.476-1.287 1.733 0 1.733 2.519 1.733 3.764 0 .867 0 1.76-.244 2.6-.365 1.3-1.124 1.449-1.475 1.449zM188.637 24.188c0-.907-.04-1.95-.393-2.911-.582-1.517-1.638-1.828-2.356-1.828-.88 0-1.732.447-2.233 1.516-.447.962-.528 2.058-.528 3.223 0 1.476.122 2.315.555 3.263a2.417 2.417 0 002.193 1.435c.893 0 1.746-.487 2.207-1.422.46-.961.555-1.95.555-3.276zm-2.749 3.886c-1.732 0-1.732-2.776-1.732-4.049 0-.88 0-1.706.243-2.477.325-.962.92-1.287 1.476-1.287 1.733 0 1.733 2.519 1.733 3.764 0 .867 0 1.76-.244 2.6-.365 1.3-1.124 1.449-1.476 1.449zM192.8 18.447c-2.03 1.814-2.544 4.563-2.544 6.77 0 2.383.582 5.036 2.545 6.783h.812c-.528-.487-1.354-1.543-1.828-3.073-.365-1.205-.5-2.465-.5-3.697 0-3.994 1.42-5.944 2.328-6.783h-.812zM204.657 24.486c.04-.19.095-.447.095-.718 0-1.015-.677-1.313-1.476-1.313-1.34 0-2.206 1.07-2.22 1.083-.095-.853-.772-1.083-1.462-1.083-.867 0-1.57.433-2.14.988l.19-.92h-.96l-1.287 6.079h1.029l.65-3.074c.122-.514.487-2.26 1.827-2.26.935 0 1.083.473 1.083.88 0 .162-.013.256-.04.351l-.867 4.103h1.03l.65-3.074c.121-.514.486-2.26 1.827-2.26.934 0 1.083.473 1.083.88 0 .162-.014.256-.04.351l-.867 4.103h1.029l.866-4.116zM211.457 22.97c0-.028-.433-.312-.799-.434-.297-.108-.65-.149-1.11-.149-2.125 0-3.682 2.153-3.682 3.926 0 1.26.799 2.424 2.288 2.424.92 0 1.665-.311 2.301-.69.055-.325.055-.353.122-.908-.433.298-1.205.759-2.234.759-.88 0-1.435-.61-1.435-1.652 0-1.205.813-3.02 2.478-3.02.73 0 1.164.136 1.733.61l.338-.867zM218.323 22.455c-.5 0-1.218.054-2.18.433-.27-.257-.69-.433-1.163-.433-1.368 0-2.64 1.327-2.64 2.653 0 .488.216.867.216.88-.23.23-.677.786-.677 1.503 0 .407.15.65.163.677-.867.46-1.178 1.192-1.178 1.639 0 .826.975 1.57 2.586 1.57 1.421 0 3.37-.69 3.37-2.22 0-.88-.554-1.503-2.382-1.503h-1.15c-.258 0-.637 0-.637-.542 0-.149.014-.365.27-.677.217.19.61.393 1.138.393 1.34 0 2.626-1.3 2.626-2.654 0-.5-.216-.88-.216-.893.04.027.067.027.081.027.068 0 .487-.054 1.042-.054.285 0 .393 0 .704.027l.027-.826zm-4.115 3.628c-.555 0-.934-.338-.934-.988 0-.799.514-1.896 1.543-1.896.352 0 .934.163.934.989 0 .853-.528 1.895-1.543 1.895zm.027 2.546c.893 0 1.611.19 1.611.799 0 .704-1.124 1.205-2.234 1.205-1.056 0-1.787-.407-1.787-.935 0-.203.203-1.07 1.246-1.07h1.164zM224.627 18.948c0-.014.082-.217.082-.244a.254.254 0 00-.244-.257c-.068 0-.19 0-.298.298l-4.535 12.74c0 .014-.081.217-.081.244 0 .163.135.257.243.257.082 0 .203-.013.298-.297l4.535-12.741zM235.75 24.486c.04-.19.095-.447.095-.718 0-1.015-.677-1.313-1.476-1.313-1.34 0-2.207 1.07-2.22 1.083-.095-.853-.772-1.083-1.462-1.083-.867 0-1.57.433-2.14.988l.19-.92h-.961l-1.286 6.079h1.029l.65-3.074c.121-.514.487-2.26 1.827-2.26.934 0 1.083.473 1.083.88 0 .162-.013.256-.04.351l-.867 4.103h1.03l.649-3.074c.122-.514.487-2.26 1.828-2.26.934 0 1.083.473 1.083.88 0 .162-.014.256-.04.351l-.867 4.103h1.029l.866-4.116zM243.525 22.455c-.501 0-1.219.054-2.18.433-.27-.257-.69-.433-1.164-.433-1.367 0-2.64 1.327-2.64 2.653 0 .488.217.867.217.88-.23.23-.677.786-.677 1.503 0 .407.149.65.162.677-.866.46-1.178 1.192-1.178 1.639 0 .826.975 1.57 2.586 1.57 1.422 0 3.371-.69 3.371-2.22 0-.88-.555-1.503-2.383-1.503h-1.15c-.258 0-.637 0-.637-.542 0-.149.014-.365.271-.677.217.19.61.393 1.137.393 1.34 0 2.627-1.3 2.627-2.654 0-.5-.217-.88-.217-.893.04.027.068.027.081.027.068 0 .488-.054 1.043-.054.284 0 .392 0 .704.027l.027-.826zm-4.116 3.628c-.555 0-.934-.338-.934-.988 0-.799.515-1.896 1.543-1.896.352 0 .935.163.935.989 0 .853-.528 1.895-1.544 1.895zm.027 2.546c.894 0 1.611.19 1.611.799 0 .704-1.123 1.205-2.233 1.205-1.056 0-1.787-.407-1.787-.935 0-.203.203-1.07 1.245-1.07h1.164zM245.564 32c2.031-1.814 2.545-4.563 2.545-6.77 0-2.383-.582-5.036-2.545-6.783h-.812c.528.487 1.354 1.544 1.828 3.073.365 1.205.5 2.465.5 3.697 0 3.994-1.421 5.944-2.328 6.783h.812z"/></g></svg>