<?xml version="1.0" encoding="UTF-8" standalone="no"?>
<!DOCTYPE svg PUBLIC "-//W3C//DTD SVG 1.1//EN" "http://www.w3.org/Graphics/SVG/1.1/DTD/svg11.dtd">
<svg width="100%" height="100%" viewBox="0 0 1600 800" version="1.1" xmlns="http://www.w3.org/2000/svg" xmlns:xlink="http://www.w3.org/1999/xlink" xml:space="preserve" xmlns:serif="http://www.serif.com/" style="fill-rule:evenodd;clip-rule:evenodd;stroke-linejoin:round;stroke-miterlimit:2;">
    <rect x="0" y="0" width="1600" height="800" style="fill:rgb(4,16,31);"/>
    <g>
        <path d="M486,705.8C376.7,684 262.6,673.6 150.7,686.4C99.5,692.1 49,703 0,719.8L0,800L843.8,800C727.9,766.8 613,731.9 496.2,707.8C492.8,707.1 489.4,706.5 486,705.8Z" style="fill:rgb(0,65,113);fill-opacity:0.21;fill-rule:nonzero;"/>
        <path d="M1600,0L0,0L0,719.8C49,703 99.5,692 150.7,686.3C262.6,673.6 376.7,683.9 486,705.7C489.4,706.4 492.8,707.1 496.2,707.7C613,731.7 727.9,766.7 843.8,799.9L1600,799.9L1600,0Z" style="fill:rgb(35,132,191);fill-opacity:0.62;fill-rule:nonzero;"/>
        <path d="M478.4,581C481.6,581.8 484.8,582.7 487.9,583.5C684.1,636 876.6,717 1081.4,760.1C1255.6,796.7 1430.9,789.3 1600,749.9L1600,0L0,0L0,574.9C52.3,557.3 106.5,547.2 161.1,544C268.4,537.4 375.7,554.2 478.4,581Z" style="fill:rgb(35,132,191);fill-opacity:0.8;fill-rule:nonzero;"/>
        <path d="M0,0L0,429.4C55.6,411 113.5,402.1 171.4,401.7C274.2,400.9 374.6,424.4 470.7,456.2C473.7,457.2 476.6,458.2 479.6,459.2C663.2,521.2 845.3,605.3 1042,651.3C1228.7,695 1418.3,685.7 1599.9,638.7L1599.9,0L0,0Z" style="fill:rgb(25,137,195);fill-rule:nonzero;"/>
        <path d="M181.8,259.4C280,265.4 373.7,294.6 463.1,331.5C465.9,332.6 468.6,333.8 471.4,334.9C642.4,406.5 814.1,493.4 1002.7,542.6C1201.5,594.4 1406.1,583.4 1600,527.8L1600,0L0,0L0,283.2C59,263.6 120.6,255.7 181.8,259.4Z" style="fill:rgb(32,119,172);fill-rule:nonzero;"/>
        <path d="M1600.1,0L0,0L0,136.3C62.3,115.4 127.7,108.8 192.2,117.1C285.8,129.2 372.7,164.8 455.5,206.7C458.1,208 460.6,209.3 463.2,210.6C621.6,291.7 782.9,381.5 963.5,433.8C1174,494.8 1394.3,482.8 1600.1,417.2L1600.1,0Z" style="fill:rgb(44,147,200);fill-rule:nonzero;"/>
        <path d="M454.9,86.3C600.7,177 751.6,269.3 924.1,325C1132.7,392.4 1355.4,385.8 1562,319.7C1574.8,315.6 1587.4,311.3 1600.1,306.8L1600.1,0L288.1,0C344.1,21.3 396.8,50.6 447.8,82C450.2,83.4 452.5,84.9 454.9,86.3Z" style="fill:rgb(76,169,208);fill-rule:nonzero;"/>
        <path d="M1600.1,0L498,0C616.1,85.8 741.5,164.5 884.8,216.2C1076.6,285.4 1284.8,290.9 1479.8,237.3C1520.6,226.1 1560.9,212.1 1600.1,195.6L1600.1,0Z" style="fill:rgb(112,186,212);fill-rule:nonzero;"/>
        <path d="M1397.5,154.8C1444.7,144.2 1491.1,129.5 1536.1,111C1557.8,102.1 1579.1,92.2 1600,81.5L1600,0L643.4,0C706.3,41.7 773.1,78.2 845.5,107.4C1020.4,178.1 1214.2,196.1 1397.5,154.8Z" style="fill:rgb(147,202,217);fill-rule:nonzero;"/>
        <path d="M1315.3,72.4C1390.6,59.8 1464.2,35.3 1532.1,0L809.1,0C966.8,71 1144.7,101 1315.3,72.4Z" style="fill:rgb(179,217,225);fill-rule:nonzero;"/>
    </g>
</svg>
