<?xml version="1.0" standalone="no"?>
<!DOCTYPE svg PUBLIC "-//W3C//DTD SVG 20010904//EN"
 "http://www.w3.org/TR/2001/REC-SVG-20010904/DTD/svg10.dtd">
<svg version="1.0" xmlns="http://www.w3.org/2000/svg"
 width="700.000000pt" height="700.000000pt" viewBox="0 0 700.000000 700.000000"
 preserveAspectRatio="xMidYMid meet">
<metadata>
Created by potrace 1.14, written by Peter Selinger 2001-2017
</metadata>
<g transform="translate(0.000000,700.000000) scale(0.100000,-0.100000)"
fill="#000000" stroke="none">
<path d="M5179 6391 c-52 -32 -118 -71 -145 -86 -514 -290 -965 -509 -1429
-694 -99 -40 -189 -76 -200 -81 -164 -70 -757 -263 -1085 -351 -84 -23 -508
-127 -540 -132 -14 -3 -81 -16 -150 -31 -118 -24 -142 -28 -215 -41 -16 -3
-41 -8 -55 -10 -46 -9 -64 -13 -175 -30 -60 -9 -117 -19 -125 -20 -8 -2 -27
-4 -42 -4 -16 -1 -28 -5 -28 -10 0 -11 84 -160 217 -382 59 -99 113 -188 118
-197 78 -131 291 -443 485 -712 103 -143 436 -564 495 -626 5 -6 33 -37 60
-70 213 -251 632 -683 900 -930 139 -128 346 -310 450 -394 44 -35 82 -67 85
-70 37 -40 473 -369 685 -517 238 -165 719 -473 741 -473 3 0 12 -7 20 -15 16
-16 34 -20 35 -7 4 36 3 5926 -1 5932 -3 5 -48 -18 -101 -49z"/>
</g>
</svg>
