<svg width="616" height="145" xmlns="http://www.w3.org/2000/svg" xmlns:xlink="http://www.w3.org/1999/xlink"><defs><path d="M8.97 3.618a4.819 4.819 0 00-.861 2.458A5.005 5.005 0 009.386 9.73a5.323 5.323 0 003.665 1.75 5.539 5.539 0 003.355-.902v12.156A43.72 43.72 0 010 5.91a43.134 43.134 0 008.589-2.148zm3.847-1.166l.229.009c.958.068 1.84.503 2.45 1.205.585.675.873 1.542.803 2.404a3.066 3.066 0 01-1.078 2.105 2.896 2.896 0 01-2.108.67 2.646 2.646 0 01-1.807-.935 2.37 2.37 0 01-.546-1.762 2.152 2.152 0 01.804-1.47c.421-.33.95-.48 1.46-.415.475.06.895.298 1.165.657.251.33.355.734.294 1.118-.056.348-.244.65-.518.838a1.048 1.048 0 01-.803.172.81.81 0 01-.533-.362.562.562 0 01-.066-.456l.013-.034a.38.38 0 01.074-.115l.009-.008-.001.03.001.035a.418.418 0 00.416.383c.3 0 .541-.232.575-.529a.726.726 0 00-.35-.692.948.948 0 00-.863-.062 1.176 1.176 0 00-.669.736c-.119.374-.066.788.144 1.14.23.382.62.654 1.077.75a1.883 1.883 0 001.449-.3c.463-.319.778-.822.87-1.395a2.3 2.3 0 00-.454-1.753 2.551 2.551 0 00-1.727-.982 2.807 2.807 0 00-2.079.588A2.987 2.987 0 009.93 6.059c-.09.85.173 1.71.733 2.384a3.48 3.48 0 002.375 1.233 3.73 3.73 0 002.718-.86 3.84 3.84 0 00.65-.7l.001 1.421a4.718 4.718 0 01-3.308 1.11 4.488 4.488 0 01-3.09-1.474A4.17 4.17 0 018.942 6.13a3.95 3.95 0 011.35-2.74c.768-.666 1.76-1 2.754-.929zM16.407 0v3.48a4.245 4.245 0 00-.28-.361 4.395 4.395 0 00-2.7-1.456A42.798 42.798 0 0016.408 0z" id="a"/></defs><g fill="none" fill-rule="evenodd"><path d="M172 144v1h-50v-1h50zm189 0v1h-50v-1h50zm-286 0v1H25v-1h50zm202-28v1h-50v-1h50zM50 106v1H0v-1h50zm501 0v1h-50v-1h50zm-354-7v1h-50v-1h50zm175 0v1h-50v-1h50zm229-27v1h-50v-1h50zm-362 0v1h-50v-1h50zm245-30v1h-50v-1h50zm-195 0v1h-50v-1h50zm327-2v1h-50v-1h50zm-65-13v1h-50v-1h50zM509 0v1h-50V0h50z" fill="#349FF1" fill-rule="nonzero"/><g transform="translate(402.797 60.578)"><mask id="b" fill="#fff"><use xlink:href="#a"/></mask><use fill="#FDC77F" xlink:href="#a"/><path d="M-.784-67.477c24.02 0 43.494 19.516 43.494 43.59 0 24.075-19.473 43.59-43.494 43.59-24.02 0-43.494-19.515-43.494-43.59 0-24.074 19.473-43.59 43.494-43.59zm0 .209c-23.906 0-43.285 19.422-43.285 43.381 0 23.96 19.38 43.382 43.285 43.382 23.906 0 43.285-19.423 43.285-43.382S23.121-67.268-.784-67.268z" fill="#FDB24C" fill-rule="nonzero" mask="url(#b)"/><path d="M-1.41-70.815c24.02 0 43.494 19.516 43.494 43.59 0 24.074-19.473 43.59-43.494 43.59S-44.904-3.15-44.904-27.225c0-24.074 19.473-43.59 43.494-43.59zm0 .208c-23.906 0-43.285 19.423-43.285 43.382s19.38 43.382 43.285 43.382c23.905 0 43.285-19.423 43.285-43.382 0-23.96-19.38-43.382-43.285-43.382z" fill="#FDB24C" fill-rule="nonzero" mask="url(#b)"/><path d="M-2.663-73.945c24.021 0 43.494 19.516 43.494 43.59 0 24.074-19.473 43.59-43.494 43.59-24.02 0-43.493-19.516-43.493-43.59 0-24.074 19.472-43.59 43.493-43.59zm0 .209c-23.905 0-43.285 19.422-43.285 43.381 0 23.96 19.38 43.382 43.285 43.382 23.906 0 43.285-19.423 43.285-43.382S21.242-73.736-2.663-73.736z" fill="#FDB24C" fill-rule="nonzero" mask="url(#b)"/><path d="M-5.167-76.866c24.02 0 43.493 19.516 43.493 43.59 0 24.074-19.473 43.59-43.493 43.59-24.021 0-43.494-19.516-43.494-43.59 0-24.074 19.473-43.59 43.494-43.59zm0 .208c-23.906 0-43.285 19.423-43.285 43.382 0 23.96 19.379 43.382 43.285 43.382 23.905 0 43.285-19.423 43.285-43.382 0-23.96-19.38-43.382-43.285-43.382z" fill="#FDB24C" fill-rule="nonzero" mask="url(#b)"/></g><path d="M418.923 63.697c.1.116.194.236.28.36v4.637a3.84 3.84 0 01-.65.7 3.73 3.73 0 01-2.718.86 3.48 3.48 0 01-2.375-1.233 3.203 3.203 0 01-.733-2.384c.086-.81.49-1.544 1.118-2.037a2.807 2.807 0 012.08-.588 2.551 2.551 0 011.726.982 2.3 2.3 0 01.453 1.754 2.089 2.089 0 01-.87 1.394 1.883 1.883 0 01-1.448.3 1.644 1.644 0 01-1.077-.75 1.397 1.397 0 01-.144-1.14c.11-.34.355-.61.669-.736a.948.948 0 01.862.062.726.726 0 01.351.692.585.585 0 01-.575.529.418.418 0 01-.416-.383l-.001-.035v-.03l-.008.008a.38.38 0 00-.074.115l-.013.034a.562.562 0 00.066.456.81.81 0 00.533.362c.266.056.558-.004.803-.172.273-.188.462-.49.518-.838a1.466 1.466 0 00-.295-1.118 1.718 1.718 0 00-1.165-.657 1.973 1.973 0 00-1.46.415c-.45.354-.74.883-.803 1.47a2.37 2.37 0 00.545 1.762c.441.532 1.092.87 1.808.935a2.896 2.896 0 002.107-.67 3.066 3.066 0 001.08-2.105 3.278 3.278 0 00-.804-2.404 3.573 3.573 0 00-2.45-1.205 3.797 3.797 0 00-2.754.93 3.95 3.95 0 00-1.35 2.74 4.17 4.17 0 001.066 3.042 4.488 4.488 0 003.091 1.474 4.718 4.718 0 003.308-1.11l-.001 1.04a5.539 5.539 0 01-3.355.904 5.323 5.323 0 01-3.665-1.751 5.005 5.005 0 01-1.278-3.653c.058-.895.36-1.745.861-2.458a42.571 42.571 0 004.458-1.955 4.386 4.386 0 012.7 1.455z" fill="#D50920"/><g fill="#48C8DE" fill-rule="nonzero"><path d="M400.453 67.727a.117.117 0 01.021.233l-.02.002h-3.75a.117.117 0 01-.022-.232l.021-.002h3.75zM401.86 66.555a.117.117 0 01.02.233l-.02.002h-3.75a.117.117 0 01-.022-.232l.021-.002h3.75zM414.75 61.868a.117.117 0 01.021.232l-.021.002-3.75.001a.117.117 0 01-.021-.232l.021-.002 3.75-.001zM416.625 60.696a.117.117 0 01.021.232l-.021.002-3.75.001a.117.117 0 01-.021-.232l.021-.002 3.75-.001z"/></g><path d="M419.203 60.578l-.001 22.5h4.337a.586.586 0 010 1.172h-21.328a.586.586 0 010-1.172h16.594l-.159-.094a43.722 43.722 0 01-15.85-16.497 43.16 43.16 0 0016.407-5.909zm-.469.827a43.613 43.613 0 01-15.041 5.42l-.158.024.026.045a43.26 43.26 0 0015.047 15.52l.125.075.001-21.084z" fill="#B05014" fill-rule="nonzero"/></g></svg>